<?xml version="1.0" encoding="utf-8"?>
<svg version="1.1" xmlns:xlink="http://www.w3.org/1999/xlink" width="12px" height="12px" viewBox="105 124  12 12" xmlns="http://www.w3.org/2000/svg">
  <path d="M 111 124  C 114.36 124  117 126.64  117 130  C 117 133.36  114.36 136  111 136  C 107.64 136  105 133.36  105 130  C 105 126.64  107.64 124  111 124  Z " fill-rule="nonzero" fill="#ffffff" stroke="none" />
  <path d="M 111 124.5  C 114.08 124.5  116.5 126.92  116.5 130  C 116.5 133.08  114.08 135.5  111 135.5  C 107.92 135.5  105.5 133.08  105.5 130  C 105.5 126.92  107.92 124.5  111 124.5  Z " stroke-width="1" stroke="#797979" fill="none" />
  <path d="M 111 133  C 109.32 133  108 131.68  108 130  C 108 128.32  109.32 127  111 127  C 112.68 127  114 128.32  114 130  C 114 131.68  112.68 133  111 133  " fill-rule="nonzero" fill="#797979" stroke="none" />
</svg>