<?xml version="1.0" encoding="utf-8"?>
<svg version="1.1" xmlns:xlink="http://www.w3.org/1999/xlink" width="12px" height="12px" viewBox="161 124  12 12" xmlns="http://www.w3.org/2000/svg">
  <path d="M 167 124  C 170.36 124  173 126.64  173 130  C 173 133.36  170.36 136  167 136  C 163.64 136  161 133.36  161 130  C 161 126.64  163.64 124  167 124  Z " fill-rule="nonzero" fill="#ffffff" stroke="none" />
  <path d="M 167 124.5  C 170.08 124.5  172.5 126.92  172.5 130  C 172.5 133.08  170.08 135.5  167 135.5  C 163.92 135.5  161.5 133.08  161.5 130  C 161.5 126.92  163.92 124.5  167 124.5  Z " stroke-width="1" stroke="#797979" fill="none" />
  <path d="M 167 133  C 165.32 133  164 131.68  164 130  C 164 128.32  165.32 127  167 127  C 168.68 127  170 128.32  170 130  C 170 131.68  168.68 133  167 133  " fill-rule="nonzero" fill="#797979" stroke="none" />
</svg>