<?xml version="1.0" encoding="utf-8"?>
<svg version="1.1" xmlns:xlink="http://www.w3.org/1999/xlink" width="12px" height="12px" viewBox="112 181  12 12" xmlns="http://www.w3.org/2000/svg">
  <path d="M 118 181  C 121.36 181  124 183.64  124 187  C 124 190.36  121.36 193  118 193  C 114.64 193  112 190.36  112 187  C 112 183.64  114.64 181  118 181  Z " fill-rule="nonzero" fill="#ffffff" stroke="none" />
  <path d="M 118 181.5  C 121.08 181.5  123.5 183.92  123.5 187  C 123.5 190.08  121.08 192.5  118 192.5  C 114.92 192.5  112.5 190.08  112.5 187  C 112.5 183.92  114.92 181.5  118 181.5  Z " stroke-width="1" stroke="#797979" fill="none" />
  <path d="M 118 190  C 116.32 190  115 188.68  115 187  C 115 185.32  116.32 184  118 184  C 119.68 184  121 185.32  121 187  C 121 188.68  119.68 190  118 190  " fill-rule="nonzero" fill="#797979" stroke="none" />
</svg>