<?xml version="1.0" encoding="utf-8"?>
<svg version="1.1" xmlns:xlink="http://www.w3.org/1999/xlink" width="12px" height="12px" viewBox="231 181  12 12" xmlns="http://www.w3.org/2000/svg">
  <path d="M 237 181  C 240.36 181  243 183.64  243 187  C 243 190.36  240.36 193  237 193  C 233.64 193  231 190.36  231 187  C 231 183.64  233.64 181  237 181  Z " fill-rule="nonzero" fill="#ffffff" stroke="none" />
  <path d="M 237 181.5  C 240.08 181.5  242.5 183.92  242.5 187  C 242.5 190.08  240.08 192.5  237 192.5  C 233.92 192.5  231.5 190.08  231.5 187  C 231.5 183.92  233.92 181.5  237 181.5  Z " stroke-width="1" stroke="#797979" fill="none" />
  <path d="M 237 190  C 235.32 190  234 188.68  234 187  C 234 185.32  235.32 184  237 184  C 238.68 184  240 185.32  240 187  C 240 188.68  238.68 190  237 190  " fill-rule="nonzero" fill="#797979" stroke="none" />
</svg>